<svg xmlns="http://www.w3.org/2000/svg" viewBox="0 0 512 512" width="512" height="512">
  <defs>
    <linearGradient id="grad" x1="0%" y1="0%" x2="100%" y2="100%">
      <stop offset="0%" style="stop-color:#f97316;stop-opacity:1" />
      <stop offset="100%" style="stop-color:#ea580c;stop-opacity:1" />
    </linearGradient>
  </defs>
  <rect width="512" height="512" rx="128" fill="#0f172a" />
  <circle cx="256" cy="256" r="180" fill="url(#grad)" />
  <path d="M352 144H160c-17.6 0-32 14.4-32 32v208c0 17.6 14.4 32 32 32h192c17.6 0 32-14.4 32-32V176c0-17.6-14.4-32-32-32zm-16 208H176v-32h160v32zm0-64H176v-32h160v32zm0-64H176v-32h160v32z" fill="#ffffff" />
</svg>
